name analog
datacolumns 19
datarows 42
range 0.5115000000000001 0.532
endheader
time	ground_force_vx	ground_force_vy	ground_force_vz	ground_force_px	ground_force_py	ground_force_pz	l_ground_force_vx	l_ground_force_vy	l_ground_force_vz	l_ground_force_px	l_ground_force_py	l_ground_force_pz	ground_torque_x	ground_torque_y	ground_torque_z	l_ground_torque_x	l_ground_torque_y	l_ground_torque_z
0.5115000000000001	-0.0	-0.0	-0.0	10.205347061157228	28.361963272094727	-162.3228302001953	3.191112756729126	-21.91996383666992	-140.70809936523438	-0.0	-0.0	-0.0	-0.0	-0.0	-0.0	44049.4453125	-392.4714965820313	607.9466552734375
0.512	-0.0	-0.0	-0.0	9.794759750366213	28.20058250427246	-156.6043701171875	3.212205648422241	-20.915882110595703	-134.29403686523438	-0.0	-0.0	-0.0	-0.0	-0.0	-0.0	42566.578125	-227.79432678222656	614.4228515625
0.5125	-0.0	-0.0	-0.0	9.563813209533691	27.3093318939209	-151.29698181152344	3.4578003883361816	-19.730682373046875	-129.96481323242188	-0.0	-0.0	-0.0	-0.0	-0.0	-0.0	40951.90234375	-356.2501525878906	780.4498901367188
0.513	-0.0	-0.0	-0.0	9.134177207946776	26.453577041625977	-148.26687622070312	3.7794034481048575	-19.254127502441406	-126.6696548461914	-0.0	-0.0	-0.0	-0.0	-0.0	-0.0	39588.015625	-305.447265625	703.5848388671875
0.5135	-0.0	-0.0	-0.0	8.456417083740234	25.66902732849121	-143.95655822753906	3.637142181396485	-18.84758186340332	-123.81546020507812	-0.0	-0.0	-0.0	-0.0	-0.0	-0.0	38970.68359375	-499.7023315429688	632.0745239257812
0.514	-0.0	-0.0	-0.0	7.725499153137207	25.152664184570312	-139.36428833007812	4.080696105957031	-18.03664207458496	-120.8026351928711	-0.0	-0.0	-0.0	-0.0	-0.0	-0.0	38025.8828125	-314.1409912109375	792.8621826171875
0.5145	-0.0	-0.0	-0.0	6.298194885253906	24.011741638183597	-135.9037322998047	3.779230117797852	-17.71673011779785	-118.85358428955078	-0.0	-0.0	-0.0	-0.0	-0.0	-0.0	37769.7265625	-354.38995361328125	704.0911254882812
0.515	-0.0	-0.0	-0.0	5.441841125488281	23.78009605407715	-134.49029541015625	3.708985567092896	-17.116525650024414	-119.48054504394533	-0.0	-0.0	-0.0	-0.0	-0.0	-0.0	37512.60546875	-462.6273498535156	698.2153930664062
0.5155	-0.0	-0.0	-0.0	4.067873477935791	22.63974952697754	-130.81585693359375	3.991985321044922	-16.95758056640625	-119.2002182006836	-0.0	-0.0	-0.0	-0.0	-0.0	-0.0	37437.546875	-644.93212890625	663.0557250976562
0.516	-0.0	-0.0	-0.0	3.283313751220703	21.784570693969727	-128.77230834960938	3.5840392112731934	-16.692798614501953	-119.200439453125	-0.0	-0.0	-0.0	-0.0	-0.0	-0.0	37554.8984375	-830.248291015625	544.1342163085938
0.5165	-0.0	-0.0	-0.0	2.088950634002685	20.6435489654541	-125.72735595703124	3.974020481109619	-16.427833557128906	-121.36480712890624	-0.0	-0.0	-0.0	-0.0	-0.0	-0.0	37832.2734375	-1017.435302734375	669.0361328125
0.517	-0.0	-0.0	-0.0	1.2317001819610596	20.03859519958496	-123.18562316894533	4.4530134201049805	-16.251190185546875	-121.99410247802734	-0.0	-0.0	-0.0	-0.0	-0.0	-0.0	38298.58203125	-967.3145751953124	598.1631469726562
0.5175	-0.0	-0.0	-0.0	0.5163562297821045	18.96765899658203	-119.08946228027344	4.204126834869385	-16.145584106445312	-124.0892333984375	-0.0	-0.0	-0.0	-0.0	-0.0	-0.0	39217.8828125	-1132.7705078125	734.3655395507812
0.518	-0.0	-0.0	-0.0	0.658446729183197	18.466964721679688	-118.23956298828124	4.3825764656066895	-15.9677734375	-126.81497955322266	-0.0	-0.0	-0.0	-0.0	-0.0	-0.0	40200.140625	-1609.5400390625	752.6157836914062
0.5185	-0.0	-0.0	-0.0	0.1953242421150207	17.380428314208984	-115.27978515625	4.2939066886901855	-16.585901260375977	-130.58270263671875	-0.0	-0.0	-0.0	-0.0	-0.0	-0.0	41477.37890625	-1696.0179443359375	681.1138916015625
0.519	-0.0	-0.0	-0.0	0.8753176927566528	15.987886428833008	-114.8395004272461	4.2957763671875	-16.55184555053711	-135.74586486816406	-0.0	-0.0	-0.0	-0.0	-0.0	-0.0	42827.32421875	-1740.5035400390625	693.1107177734375
0.5195	-0.0	-0.0	-0.0	1.3910837173461914	15.383307456970217	-113.0715789794922	4.310909271240234	-16.78112030029297	-141.11509704589844	-0.0	-0.0	-0.0	-0.0	-0.0	-0.0	44942.25	-2110.843017578125	533.4832763671875
0.52	-0.0	-0.0	-0.0	2.4086837768554688	14.491962432861328	-114.86173248291016	3.8337342739105225	-17.096233367919922	-147.2665252685547	-0.0	-0.0	-0.0	-0.0	-0.0	-0.0	47247.82421875	-2484.699462890625	384.0166320800781
0.5205	-0.0	-0.0	-0.0	3.1951279640197754	14.082603454589844	-118.0134506225586	3.742535591125488	-17.13440704345703	-153.70278930664062	-0.0	-0.0	-0.0	-0.0	-0.0	-0.0	49472.17578125	-2660.886962890625	343.12109375
0.521	-0.0	-0.0	-0.0	4.638946533203125	13.418508529663086	-123.67762756347656	3.673215866088867	-17.451778411865234	-162.75823974609375	-0.0	-0.0	-0.0	-0.0	-0.0	-0.0	52217.2109375	-3034.91357421875	128.8985137939453
0.5215	-0.0	-0.0	-0.0	7.011133193969727	12.745647430419922	-133.0846405029297	4.175871849060059	-18.017623901367188	-171.58836364746094	-0.0	-0.0	-0.0	-0.0	-0.0	-0.0	55382.02734375	-3483.01025390625	164.2958526611328
0.522	-0.0	-0.0	-0.0	10.68033218383789	11.879250526428224	-144.20712280273438	4.661873817443848	-18.102367401123047	-181.41635131835935	-0.0	-0.0	-0.0	-0.0	-0.0	-0.0	58652.5390625	-3918.970458984375	295.35791015625
0.5225	-0.0	-0.0	-0.0	15.408148765563965	10.816720008850098	-160.3885955810547	5.903571605682373	-18.161970138549805	-193.9706573486328	-0.0	-0.0	-0.0	-0.0	-0.0	-0.0	62493.4765625	-4603.33251953125	617.1065063476562
0.523	-0.0	-0.0	-0.0	21.6732234954834	10.108372688293455	-181.8681488037109	8.100799560546875	-18.5997314453125	-207.77638244628903	-0.0	-0.0	-0.0	-0.0	-0.0	-0.0	66860.28125	-5427.484375	1263.0828857421875
0.5235	-0.0	-0.0	-0.0	28.52104949951172	10.884328842163086	-207.58657836914065	11.334565162658691	-18.796628952026367	-222.24887084960935	-0.0	-0.0	-0.0	-0.0	-0.0	-0.0	71883.296875	-5948.4287109375	2273.764892578125
0.524	-0.0	-0.0	-0.0	34.77095413208008	12.787896156311035	-236.4631500244141	15.838153839111328	-19.550708770751957	-238.16555786132807	-0.0	-0.0	-0.0	-0.0	-0.0	-0.0	76751.859375	-6869.212890625	3534.7607421875
0.5245	-0.0	-0.0	-0.0	38.17632293701172	14.80539608001709	-271.0277709960937	20.64891242980957	-20.87531852722168	-255.6022491455078	-0.0	-0.0	-0.0	-0.0	-0.0	-0.0	82727.921875	-7820.31494140625	5146.53515625
0.525	-0.0	-0.0	-0.0	36.58238220214844	17.574087142944336	-305.47662353515625	25.49129676818848	-22.72983741760254	-275.0903015136719	-0.0	-0.0	-0.0	-0.0	-0.0	-0.0	88917.4609375	-9073.693359375	6630.921875
0.5255	-0.0	-0.0	-0.0	30.78398704528809	20.561128616333008	-337.1405334472656	29.11267471313477	-25.31189727783203	-295.3388671875	-0.0	-0.0	-0.0	-0.0	-0.0	-0.0	95462.203125	-10356.826171875	7815.91796875
0.526	-0.0	-0.0	-0.0	24.01950454711914	23.293312072753903	-360.836669921875	30.42779922485352	-28.211116790771484	-315.3819580078125	-0.0	-0.0	-0.0	-0.0	-0.0	-0.0	102071.390625	-10935.2421875	8266.224609375
0.5265	-0.0	-0.0	-0.0	17.79689598083496	25.936946868896484	-375.1964111328125	28.778995513916016	-32.0181770324707	-335.45050048828125	-0.0	-0.0	-0.0	-0.0	-0.0	-0.0	108897.6796875	-11795.3271484375	7861.033203125
0.527	-0.0	-0.0	-0.0	12.593124389648438	27.749435424804688	-383.0818481445313	25.51831817626953	-35.440914154052734	-356.8078918457031	-0.0	-0.0	-0.0	-0.0	-0.0	-0.0	115384.7734375	-12241.1015625	6700.92822265625
0.5275	-0.0	-0.0	-0.0	9.107057571411133	30.757204055786133	-387.085205078125	20.9056453704834	-39.36308670043945	-373.76995849609375	-0.0	-0.0	-0.0	-0.0	-0.0	-0.0	120844.7890625	-12365.783203125	5168.66357421875
0.528	-0.0	-0.0	-0.0	5.665299415588379	33.11151123046875	-384.4963989257813	15.819364547729492	-41.79105758666992	-388.34283447265625	-0.0	-0.0	-0.0	-0.0	-0.0	-0.0	126154.8671875	-12348.056640625	3752.955078125
0.5285	-0.0	-0.0	-0.0	3.427297115325928	36.66180419921875	-384.2019348144531	12.101593017578123	-43.83714294433594	-401.1468505859375	-0.0	-0.0	-0.0	-0.0	-0.0	-0.0	129852.984375	-12409.8212890625	2434.891357421875
0.529	-0.0	-0.0	-0.0	1.300800085067749	39.70647430419922	-382.3459777832031	8.945050239562988	-45.55931854248047	-408.6234130859375	-0.0	-0.0	-0.0	-0.0	-0.0	-0.0	132329.921875	-12180.1455078125	1216.0369873046875
0.5295	-0.0	-0.0	-0.0	0.0230341404676437	42.3426628112793	-379.3495178222656	5.574154853820801	-46.707611083984375	-410.5140686035156	-0.0	-0.0	-0.0	-0.0	-0.0	-0.0	133522.640625	-11454.63671875	165.19447326660156
0.53	-0.0	-0.0	-0.0	-1.070526123046875	44.52774810791016	-374.1659851074219	2.7953054904937744	-48.13532257080078	-410.6593017578125	-0.0	-0.0	-0.0	-0.0	-0.0	-0.0	133403.640625	-10561.158203125	-791.187255859375
0.5305	-0.0	-0.0	-0.0	-1.821739196777344	45.43807220458984	-370.5783081054688	0.7696014642715454	-48.80490112304688	-409.4981689453125	-0.0	-0.0	-0.0	-0.0	-0.0	-0.0	132449.5625	-9819.7646484375	-1559.193603515625
0.531	-0.0	-0.0	-0.0	-2.014255285263061	46.09444427490234	-366.0055541992188	-0.9299588799476624	-49.58551788330078	-405.33099365234375	-0.0	-0.0	-0.0	-0.0	-0.0	-0.0	131043.8359375	-8989.56640625	-2252.387939453125
0.5315	-0.0	-0.0	-0.0	-2.563337564468384	46.15968322753906	-360.8558044433594	-2.4324772357940674	-50.246070861816406	-400.4212646484375	-0.0	-0.0	-0.0	-0.0	-0.0	-0.0	129079.390625	-8109.466796875	-2965.416015625
0.532	-0.0	-0.0	-0.0	-3.0055384635925293	45.634765625	-354.0754699707031	-3.996828556060791	-50.15272521972656	-393.843017578125	-0.0	-0.0	-0.0	-0.0	-0.0	-0.0	126703.46875	-7343.54541015625	-3269.224853515625
